<svg width="64" height="64" viewBox="0 0 64 64" xmlns="http://www.w3.org/2000/svg">
  <defs>
    <linearGradient id="flame" x1="20" y1="6" x2="44" y2="60" gradientUnits="userSpaceOnUse">
      <stop offset="0" stop-color="#F7A823"/>
      <stop offset="0.45" stop-color="#F2641E"/>
      <stop offset="0.8" stop-color="#C21E12"/>
      <stop offset="1" stop-color="#7E120B"/>
    </linearGradient>
    <linearGradient id="arrow" x1="14" y1="52" x2="52" y2="16" gradientUnits="userSpaceOnUse">
      <stop offset="0" stop-color="#AEB6C0"/>
      <stop offset="1" stop-color="#E7EBF0"/>
    </linearGradient>
  </defs>
  <!-- Flame: tall left licks + rounded body -->
  <path d="M33 4c2 9-3 13-7 18-3 4-6 8-6 14 0 1 .1 2 .3 3-2-1-3.4-3-4-5-3 3-4.6 7-4.6 11 0 9.4 7.6 16 17.3 16S46 54.4 46 45c0-7-3.4-11-6-15 1.6.4 3 1.4 4 3 .8-7-1.4-12-4.6-16C36 13 35 9 33 4z" fill="url(#flame)"/>
  <!-- Upward growth arrow (light grey) over the flame -->
  <g fill="none" stroke="url(#arrow)" stroke-width="5.5" stroke-linecap="round" stroke-linejoin="round">
    <path d="M16 46l9-9 7 7 12-13"/>
  </g>
  <path d="M50 17l1.5 12-12-2z" fill="#E7EBF0"/>
</svg>
